<?xml version="1.0" encoding="utf-8"?>
<!-- Generator: Adobe Illustrator 22.1.0, SVG Export Plug-In . SVG Version: 6.00 Build 0)  -->
<svg version="1.1" id="Layer_1" xmlns="http://www.w3.org/2000/svg" xmlns:xlink="http://www.w3.org/1999/xlink" x="0px" y="0px"
	 viewBox="0 0 384.2 75.5" style="enable-background:new 0 0 384.2 75.5;" xml:space="preserve">
<style type="text/css">
	.st0{fill:#FFFFFF;}
	.st1{fill:#9C2376;}
	.st2{fill:#545759;}
	.st3{fill:none;stroke:#FFFFFF;stroke-width:1.607;stroke-miterlimit:10;}
	.st4{fill:none;}
</style>
<polygon class="st0" points="148.3,0.8 376.1,1.3 379.6,1.5 382.6,4.3 382.2,6.6 382.2,70 382.1,72.3 380.1,74 375.6,74 149.6,74 
	"/>
<path class="st1" d="M377.6,0h-24.1H353h-30.9h-3H6.6C3,0,0,3,0,6.6v62.2c0,3.7,3,6.6,6.6,6.6h312.5h2.7H353h1.1h23.4
	c3.7,0,6.6-3,6.6-6.6V6.6C384.2,3,381.2,0,377.6,0z M382.2,68.9c0,2.6-2.1,4.6-4.6,4.6h-23.4H353h-31.3h-2.7H152.6V2h166.5h3H353
	h0.4h24.1c2.6,0,4.6,2.1,4.6,4.6V68.9z"/>
<g>
	<g>
		<path class="st0" d="M109.8,20.5h-1.7v2.3h1.8c0.9,0,1.4-0.4,1.4-1.1v0C111.3,20.9,110.7,20.5,109.8,20.5"/>
	</g>
	<polygon class="st0" points="119.5,24 121.6,24 120.5,21.3 	"/>
	<g>
		<path class="st0" d="M88.9,20.5h-1.7v2.3h1.8c0.9,0,1.4-0.4,1.4-1.1v0C90.3,20.9,89.8,20.5,88.9,20.5"/>
		<path class="st0" d="M134.9,27.8h-7.3v-9.5h2.6v7.2h4.6V27.8z M123.1,27.8l-0.7-1.7h-3.7l-0.7,1.7h-2.8l4.1-9.6h2.6l4.1,9.6H123.1
			z M111.2,27.8l-1.9-2.9h-1.2v2.9h-2.6v-9.5h4.5c1.5,0,2.5,0.4,3.1,1c0.6,0.6,0.8,1.3,0.8,2.2v0c0,1.5-0.8,2.4-2,2.9l2.3,3.3H111.2
			z M103.4,23.6c0,3.1-1.8,4.4-4.5,4.4c-2.7,0-4.4-1.4-4.4-4.4v-5.4h2.7v5.3c0,1.4,0.7,2,1.8,2c1.1,0,1.8-0.6,1.8-2v-5.4h2.7V23.6z
			 M90.2,27.8l-1.9-2.9h-1.2v2.9h-2.6v-9.5H89c1.5,0,2.5,0.4,3.1,1c0.6,0.6,0.8,1.3,0.8,2.2v0c0,1.5-0.8,2.4-2,2.9l2.3,3.3H90.2z
			 M138.5,15.8H81.4v14.5h57.1V15.8z"/>
	</g>
	<polygon class="st0" points="93.2,42.3 93.2,32.7 90.5,32.7 90.5,36.3 87.1,36.3 87.1,32.7 84.5,32.7 84.5,42.3 87.1,42.3 
		87.1,38.6 90.5,38.6 90.5,42.3 	"/>
	<polygon class="st0" points="103,35 103,32.7 95.3,32.7 95.3,42.3 103.1,42.3 103.1,40 97.9,40 97.9,38.5 102.5,38.5 102.5,36.4 
		97.9,36.4 97.9,35 	"/>
	<path class="st0" d="M109.6,35.8l1.1,2.7h-2.1L109.6,35.8z M104.3,42.3h2.8l0.7-1.7h3.7l0.7,1.7h2.8l-4.1-9.6h-2.6L104.3,42.3z"/>
	<polygon class="st0" points="116.4,32.7 116.4,42.3 123.7,42.3 123.7,40 119.1,40 119.1,32.7 	"/>
	<polygon class="st0" points="128.9,42.3 128.9,35 131.8,35 131.8,32.7 123.4,32.7 123.4,35 126.2,35 126.2,42.3 	"/>
	<polygon class="st0" points="139.6,32.7 139.6,36.3 136.2,36.3 136.2,32.7 133.6,32.7 133.6,42.3 136.2,42.3 136.2,38.6 
		139.6,38.6 139.6,42.3 142.3,42.3 142.3,32.7 	"/>
	<g>
		<path class="st0" d="M128,49.5h-2.9v7.2h-2.6v-7.2h-2.8v-2.3h8.4V49.5z M118.1,53.8c0,2-1.5,3.1-3.9,3.1c-1.7,0-3.3-0.5-4.5-1.6
			l1.5-1.8c1,0.8,2,1.1,3.1,1.1c0.7,0,1.1-0.2,1.1-0.7v0c0-0.4-0.3-0.6-1.6-0.9c-2-0.5-3.6-1-3.6-3v0c0-1.8,1.4-3.1,3.7-3.1
			c1.6,0,2.9,0.4,3.9,1.3l-1.3,1.9c-0.9-0.6-1.8-0.9-2.7-0.9c-0.6,0-1,0.3-1,0.6v0c0,0.4,0.3,0.6,1.7,0.9
			C116.7,51.3,118.1,52,118.1,53.8L118.1,53.8z M107.9,56.8h-7.7v-9.5h7.7v2.2h-5.1v1.5h4.6V53h-4.6v1.5h5.1V56.8z M95.5,56.8h-2.3
			l-1.9-5.5l-1.9,5.5H87l-3.2-9.6h2.8l1.7,5.5l1.8-5.6h2.3l1.8,5.6l1.7-5.5h2.7L95.5,56.8z M81.4,44.8v14.5h57.1l-7.8-7.2l7.8-7.2
			H81.4z"/>
		<path class="st0" d="M47.5,44.9c-0.1-0.5-0.4-0.9-0.9-1.1c-0.4-0.2-0.7-0.2-1-0.1v0c-0.4,0.1-0.8,0.1-1.2-0.1l-5.9-4.5
			c-0.1,0-0.1-0.1-0.2-0.2c-0.1-0.1,0-0.3,0-0.4c0.1-0.2,0.2-0.3,0.3-0.5h0c0.1-0.1,0.2-0.2,0.3-0.3c0.1,0,0.1,0,0.2,0l4,1.1l0,0
			c0.4,0.1,0.7,0.4,0.9,0.8c0.1,0.2,0.2,0.5,0.5,0.7c0.3,0.3,0.8,0.4,1.2,0.3c1-0.2,1.6-1.3,1-2.3c-0.3-0.4-0.7-0.7-1.2-0.7
			c-0.4,0-0.7,0.1-1,0.3l0,0c-0.3,0.3-0.7,0.4-1.1,0.3L39.3,37h0c-0.1,0-0.2-0.1-0.2-0.1C39,36.8,39,36.6,39,36.5c0-0.1,0-0.5,0-0.7
			c0-0.4,0-0.8-0.1-1.1c0-0.1,0-0.3,0.1-0.4c0.1-0.1,0.1-0.1,0.2-0.1h0l4.3-1.6l0,0c0.4-0.1,0.8-0.1,1.2,0.2
			c0.2,0.1,0.5,0.2,0.8,0.3c0.4,0,0.9-0.1,1.2-0.4c0.7-0.7,0.5-2-0.5-2.5c-0.2-0.1-0.4-0.1-0.6-0.1c-0.3,0-0.6,0.1-0.8,0.2
			c-0.3,0.2-0.5,0.5-0.6,0.8h0c-0.1,0.4-0.4,0.7-0.7,0.9L39,33.5c-0.1,0-0.1,0-0.2,0c-0.2,0-0.3-0.1-0.3-0.3
			c-0.1-0.1-0.4-0.6-0.4-0.6c-0.1-0.1-0.1-0.3-0.1-0.4c0-0.1,0.1-0.1,0.1-0.2l6-5.6v0c0.3-0.3,0.7-0.4,1.1-0.3
			c0.2,0.1,0.5,0,0.8-0.1c0.4-0.1,0.8-0.5,0.9-0.9c0.4-1-0.3-2.1-1.4-2.1h0c-0.5,0-1,0.2-1.2,0.7c-0.2,0.3-0.3,0.7-0.3,1l0,0
			c0.1,0.4-0.1,0.8-0.3,1.1l-6.1,5.7c-0.1,0.1-0.1,0.1-0.2,0.1c-0.2,0-0.3,0-0.4-0.1c0,0-0.1,0-0.1-0.1c-0.1-0.1-0.2-0.2-0.2-0.3
			c0-0.1,0-0.2,0.1-0.2l7.4-12.5v0c0.2-0.3,0.6-0.6,1-0.6c0.2,0,0.5-0.1,0.8-0.3c0.4-0.3,0.6-0.7,0.7-1.1c0.1-0.9-0.6-1.6-1.5-1.6
			c-0.1,0-0.3,0-0.4,0.1c-0.5,0.1-0.9,0.5-1,1c-0.1,0.4-0.1,0.7,0,1l0,0c0.2,0.4,0.2,0.8,0,1.2l-7.4,12.6c0,0.1-0.1,0.1-0.2,0.2
			c-0.1,0-0.2,0.1-0.3,0c-0.1-0.1-0.1-0.1-0.1-0.2c0-0.1,0-0.2,0-0.3L42.5,11l0,0c0.2-0.4,0.5-0.7,0.9-0.8c0.2-0.1,0.5-0.2,0.7-0.5
			c0.3-0.3,0.5-0.8,0.4-1.2c-0.1-0.8-0.8-1.3-1.5-1.3h0c-0.2,0-0.5,0.1-0.7,0.2c-0.4,0.2-0.8,0.7-0.8,1.2c0,0.4,0,0.7,0.2,1l0,0
			c0.2,0.3,0.3,0.8,0.3,1.2l-6.8,19.5c0,0.1,0,0.1-0.1,0.2c-0.1,0.1-0.2,0.1-0.3,0.1c-0.1,0-0.2-0.1-0.2-0.2c0-0.1,0-0.2,0-0.3
			l1.2-13c0.1-0.4,0.3-0.8,0.6-1v0c0.2-0.1,0.4-0.3,0.6-0.6c0.2-0.4,0.3-0.9,0.1-1.3c-0.2-0.6-0.8-1-1.4-1c-0.3,0-0.7,0.1-1,0.4
			c-0.4,0.3-0.6,0.8-0.5,1.3c0,0.4,0.2,0.7,0.5,0.9v0c0.3,0.3,0.5,0.7,0.5,1.1L33.8,30c0,0.1,0,0.1-0.1,0.2
			c-0.1,0.1-0.2,0.2-0.3,0.2s-0.3,0-0.3-0.1c0,0-0.1-0.1-0.1-0.2l-1.3-7.4l0,0c0-0.4,0.1-0.8,0.4-1.1c0.2-0.2,0.3-0.4,0.4-0.7
			c0.1-0.4,0-0.9-0.2-1.3c-0.3-0.4-0.8-0.6-1.2-0.6c-0.5,0-1,0.2-1.3,0.7c-0.3,0.4-0.3,0.9-0.1,1.4c0.1,0.4,0.4,0.6,0.7,0.8v0
			c0.4,0.2,0.7,0.5,0.8,0.9l1.3,7.5c0,0.1,0,0.2,0,0.2c0,0.1-0.1,0.2-0.2,0.2c0,0-0.1,0-0.1,0c-0.5,0.2-1,0.4-1.5,0.7
			c-0.1,0.1-0.3,0.1-0.4,0.1c-0.1,0-0.1-0.1-0.2-0.1l-5.2-5.9h0c-0.2-0.3-0.4-0.7-0.3-1.1c0.1-0.2,0.1-0.5-0.1-0.8
			c-0.1-0.4-0.4-0.8-0.8-1c-0.2-0.1-0.4-0.1-0.6-0.1c-0.8,0-1.5,0.6-1.5,1.5c0,0.5,0.2,1,0.6,1.3c0.3,0.2,0.7,0.3,1,0.3v0
			c0.4,0,0.8,0.1,1.1,0.3l5.3,6c0.1,0.1,0.1,0.1,0.1,0.2c0,0.1,0,0.3-0.1,0.4c-0.1,0.1-0.1,0.1-0.2,0.2c-0.1,0.1-0.2,0.2-0.3,0.2
			c-0.1,0-0.2,0-0.3,0L20.5,28h0c-0.3-0.2-0.6-0.6-0.6-1c0-0.2-0.1-0.5-0.3-0.8c-0.3-0.4-0.7-0.6-1.1-0.6c0,0-0.1,0-0.1,0
			c-0.8,0-1.5,0.7-1.5,1.5v0.1c0,0.1,0,0.3,0.1,0.4c0.1,0.5,0.5,0.9,1,1c0.4,0.1,0.7,0.1,1,0v0c0.4-0.2,0.8-0.2,1.2,0l8.3,4.7l0,0
			c0,0,0,0,0,0l0,0c0,0,0.1,0.1,0.1,0.1c0.1,0.1,0.1,0.2,0,0.3c-0.1,0.2-0.2,0.5-0.3,0.8c0,0.1-0.1,0.2-0.2,0.3c-0.1,0-0.1,0-0.2,0
			L20.8,34h0c-0.4-0.1-0.8-0.3-1-0.7c-0.1-0.2-0.3-0.4-0.6-0.6c-0.2-0.1-0.5-0.2-0.8-0.2h-0.1c-0.1,0-0.2,0-0.4,0.1
			c-1,0.3-1.4,1.6-0.7,2.4c0.3,0.4,0.8,0.6,1.3,0.5c0.4,0,0.7-0.2,0.9-0.4l0,0c0.3-0.3,0.7-0.5,1.1-0.5l7.2,0.8c0.1,0,0.1,0,0.2,0.1
			c0.1,0.1,0.2,0.2,0.2,0.4c0,0.3,0,0.6,0.1,0.9c0,0.1,0,0.3-0.1,0.3c-0.1,0.1-0.1,0.1-0.2,0.1L22.5,39l0,0c-0.4,0.1-0.8,0-1.2-0.2
			c-0.2-0.1-0.4-0.3-0.8-0.3c-0.4,0-0.9,0.1-1.2,0.4c-0.8,0.7-0.6,2,0.4,2.5c0.4,0.2,1,0.2,1.4-0.1c0.3-0.2,0.6-0.5,0.7-0.8h0
			c0.1-0.4,0.4-0.7,0.8-0.9l5.6-1.8c0.1,0,0.2,0,0.2,0c0.1,0,0.2,0.1,0.3,0.2c0.1,0.3,0.3,0.5,0.4,0.7c0,0.1,0.1,0.2,0,0.3
			c0,0.1-0.1,0.2-0.1,0.2l0,0l-4.8,4.1v0c-0.3,0.2-0.7,0.3-1.1,0.3v0c-0.2-0.1-0.5-0.1-0.8,0c-0.4,0.1-0.8,0.4-1,0.8
			c-0.4,1,0.2,2.1,1.3,2.1c0.5,0,1-0.2,1.3-0.6c0.2-0.3,0.3-0.7,0.3-1h0c0-0.4,0.1-0.8,0.4-1.1l4.9-4.2c0.1,0,0.1-0.1,0.2-0.1
			c0.1,0,0.3,0,0.4,0.1c0.1,0.1,0.2,0.2,0.4,0.3c0.1,0.1,0.2,0.2,0.1,0.3c0,0.1,0,0.1,0,0.1L25,50v0c-0.2,0.3-0.6,0.6-1,0.6
			c-0.2,0-0.5,0.1-0.8,0.3c-0.4,0.3-0.6,0.7-0.6,1.1c-0.1,0.9,0.6,1.6,1.5,1.6h0c0.1,0,0.3,0,0.4-0.1c0.5-0.1,0.9-0.5,1-1
			c0.1-0.4,0.1-0.7,0-1h0c-0.2-0.4-0.2-0.8,0-1.2L31,41l0,0c0-0.1,0.1-0.1,0.2-0.2c0.1-0.1,0.2-0.1,0.3,0c0.1,0,0.1,0,0.1,0.1
			c0.1,0.1,0.2,0.2,0.3,0.3c0,0.1,0,0.1,0,0.2L30,48.6v0c-0.1,0.4-0.4,0.7-0.8,0.9c-0.2,0.1-0.5,0.2-0.7,0.5
			c-0.3,0.3-0.4,0.8-0.3,1.2c0.2,1,1.4,1.6,2.3,1c0.4-0.3,0.7-0.7,0.7-1.2c0-0.4-0.1-0.7-0.3-1l0,0c-0.3-0.3-0.4-0.7-0.4-1.1
			l1.9-7.4c0-0.1,0.1-0.1,0.1-0.2c0.1-0.1,0.2-0.1,0.4-0.1c0.2,0,0.3,0,0.5,0c0.1,0,0.3,0.1,0.4,0.2c0,0.1,0.1,0.1,0.1,0.2l0.6,5.5
			l0,0c0,0.4-0.1,0.8-0.4,1.1c-0.2,0.2-0.3,0.4-0.4,0.7c-0.1,0.4-0.1,0.9,0.1,1.3c0.6,0.9,1.8,1,2.5,0.1c0.3-0.4,0.4-0.9,0.2-1.4
			c-0.1-0.4-0.4-0.6-0.6-0.8l0,0c-0.4-0.2-0.6-0.5-0.7-0.9l-0.6-5.6l0,0c0-0.1,0-0.2,0-0.3c0.1-0.1,0.2-0.2,0.3-0.3
			c0.1,0,0.2-0.1,0.3-0.1c0.2-0.1,0.4-0.1,0.6-0.2l0,0c0.1-0.1,0.3-0.1,0.4,0c0.1,0,0.1,0.1,0.1,0.1l2.1,3.4h0
			c0.2,0.4,0.2,0.8,0.1,1.2c-0.1,0.2-0.1,0.5-0.1,0.8c0.1,0.4,0.3,0.9,0.7,1.1c0.9,0.6,2.1,0.1,2.3-1c0.1-0.5,0-1-0.4-1.4
			c-0.3-0.3-0.6-0.4-0.9-0.5v0c-0.4,0-0.8-0.2-1-0.5l-2.2-3.5l0,0c0-0.1,0-0.1,0-0.2c0-0.2,0.1-0.3,0.2-0.4c0.1-0.1,0.3-0.2,0.4-0.4
			c0.1-0.1,0.2-0.2,0.4-0.2c0.1,0,0.2,0,0.2,0.1l5.8,4.4h0c0.3,0.3,0.5,0.6,0.5,1.1c0,0.2,0,0.5,0.2,0.8c0.2,0.4,0.6,0.7,1,0.8
			C46.7,46.8,47.6,46,47.5,44.9"/>
	</g>
	<polygon class="st0" points="16.9,65.7 14.8,58.8 16.3,58.8 17.6,63.1 18.9,58.8 20.1,58.8 21.3,63.1 22.6,58.8 24.1,58.8 22,65.7 
		20.7,65.7 19.4,61.6 18.2,65.7 	"/>
	<path class="st0" d="M26.1,63.4h2l-1-2.5L26.1,63.4z M23.6,65.7l2.8-6.9h1.4l2.8,6.9h-1.6l-0.5-1.2h-2.9l-0.5,1.2H23.6z"/>
	<g>
		<path class="st0" d="M33.2,62.1h1.3c0.2,0,0.4-0.1,0.6-0.2c0.2-0.1,0.3-0.4,0.3-0.7c0-0.3-0.1-0.6-0.3-0.7
			c-0.2-0.1-0.4-0.2-0.6-0.2h-1.3V62.1z M31.7,65.7v-6.9h2.9c0.6,0,1.1,0.2,1.6,0.6c0.5,0.4,0.7,1,0.7,1.7c0,0.7-0.2,1.2-0.7,1.7
			c-0.5,0.4-1,0.7-1.6,0.7h-1.4v2.2H31.7z"/>
	</g>
	<polygon class="st0" points="38,65.7 38,58.8 39.6,58.8 39.6,61.4 42.5,61.4 42.5,58.8 44.1,58.8 44.1,65.7 42.5,65.7 42.5,62.8 
		39.6,62.8 39.6,65.7 	"/>
	<path class="st0" d="M47.6,63.4h2l-1-2.5L47.6,63.4z M45.1,65.7l2.8-6.9h1.4l2.8,6.9h-1.6L50,64.6h-2.9l-0.5,1.2H45.1z"/>
	<g>
		<path class="st2" d="M181.8,25.8c0-1.7-1.3-2.8-3.1-2.8H174v5.6h4.7C180.5,28.6,181.8,27.5,181.8,25.8 M169.6,39.8V19.1h9.7
			c4.5,0,7,3.1,7,6.7c0,3.6-2.5,6.7-7,6.7H174v7.4H169.6z"/>
		<path class="st2" d="M188.6,39.8v-15h4v2.1c1.1-1.3,2.9-2.4,4.8-2.4v3.9c-0.3-0.1-0.7-0.1-1.1-0.1c-1.3,0-3.1,0.7-3.7,1.7v9.9
			H188.6z"/>
		<path class="st2" d="M208.8,36.2v-1.9c-0.7-0.9-1.9-1.3-3.2-1.3c-1.6,0-2.8,0.8-2.8,2.3c0,1.4,1.3,2.2,2.8,2.2
			C206.9,37.5,208.2,37.1,208.8,36.2 M208.8,39.8v-1.6c-1,1.2-2.8,1.9-4.8,1.9c-2.4,0-5.2-1.6-5.2-5c0-3.5,2.8-4.9,5.2-4.9
			c2,0,3.8,0.7,4.8,1.8v-2c0-1.5-1.3-2.5-3.3-2.5c-1.6,0-3.1,0.6-4.4,1.8l-1.5-2.6c1.8-1.6,4.2-2.4,6.6-2.4c3.4,0,6.6,1.4,6.6,5.7
			v9.7H208.8z"/>
		<path class="st2" d="M215.4,32.3c0-4.6,3.3-7.9,8-7.9c3.1,0,4.9,1.3,5.9,2.7l-2.6,2.4c-0.7-1.1-1.8-1.6-3.2-1.6
			c-2.4,0-4.1,1.7-4.1,4.4s1.7,4.4,4.1,4.4c1.4,0,2.5-0.6,3.2-1.6l2.6,2.4c-1,1.4-2.9,2.7-5.9,2.7C218.7,40.2,215.4,36.9,215.4,32.3
			"/>
		<path class="st2" d="M233,36.1v-7.8h-2.5v-3.5h2.5v-4.1h4v4.1h3.1v3.5H237V35c0,0.9,0.5,1.7,1.4,1.7c0.6,0,1.2-0.2,1.4-0.4l0.8,3
			c-0.6,0.5-1.6,1-3.3,1C234.5,40.2,233,38.8,233,36.1"/>
		<path class="st2" d="M242.7,24.8h4v15h-4V24.8z M242.3,20.8c0-1.3,1.1-2.3,2.4-2.3c1.3,0,2.4,1,2.4,2.3c0,1.3-1.1,2.4-2.4,2.4
			C243.4,23.2,242.3,22.1,242.3,20.8"/>
		<path class="st2" d="M249.7,32.3c0-4.6,3.3-7.9,8-7.9c3.1,0,5,1.3,5.9,2.7l-2.6,2.4c-0.7-1.1-1.8-1.6-3.2-1.6
			c-2.4,0-4.1,1.7-4.1,4.4s1.7,4.4,4.1,4.4c1.4,0,2.5-0.6,3.2-1.6l2.6,2.4c-1,1.4-2.9,2.7-5.9,2.7C253,40.2,249.7,36.9,249.7,32.3"
			/>
		<path class="st2" d="M273,27.6c-2.5,0-3.5,1.8-3.7,3.3h7.4C276.6,29.5,275.6,27.6,273,27.6 M265.2,32.3c0-4.4,3.2-7.9,7.8-7.9
			c4.5,0,7.5,3.4,7.5,8.3v0.9h-11.2c0.2,1.9,1.8,3.5,4.3,3.5c1.3,0,3-0.6,4-1.5l1.7,2.6c-1.5,1.4-3.9,2.1-6.2,2.1
			C268.6,40.2,265.2,37.1,265.2,32.3"/>
	</g>
	<path class="st1" d="M296.9,21.7l-4.4,11.2h8.8L296.9,21.7z M303.9,39.8l-1.8-4.6h-10.3l-1.8,4.6h-3l8.3-20.8h3.2l8.4,20.8H303.9z"
		/>
	<g>
		<path class="st1" d="M308.2,37.8l1.2-1.7c1,1.2,2.9,2.1,4.9,2.1c2.3,0,3.5-1.1,3.5-2.6c0-3.6-9.3-1.4-9.3-7c0-2.3,2-4.3,5.6-4.3
			c2.6,0,4.4,1,5.6,2.2l-1.1,1.6c-0.9-1.1-2.6-1.9-4.5-1.9c-2.1,0-3.3,1-3.3,2.4c0,3.3,9.3,1.1,9.3,7c0,2.5-2,4.5-5.9,4.5
			C311.8,40.2,309.7,39.5,308.2,37.8"/>
		<path class="st1" d="M322.6,37.8l1.2-1.7c1,1.2,2.9,2.1,4.9,2.1c2.3,0,3.5-1.1,3.5-2.6c0-3.6-9.3-1.4-9.3-7c0-2.3,2-4.3,5.6-4.3
			c2.6,0,4.4,1,5.6,2.2l-1.1,1.6c-0.9-1.1-2.6-1.9-4.5-1.9c-2.1,0-3.3,1-3.3,2.4c0,3.3,9.3,1.1,9.3,7c0,2.5-2,4.5-5.9,4.5
			C326.2,40.2,324.2,39.5,322.6,37.8"/>
		<path class="st1" d="M338.4,24.8h2.3v15h-2.3V24.8z M338,21.1c0-0.9,0.7-1.6,1.6-1.6c0.9,0,1.6,0.7,1.6,1.6c0,0.9-0.7,1.6-1.6,1.6
			C338.7,22.6,338,22,338,21.1"/>
		<path class="st1" d="M344.1,37.8l1.2-1.7c1,1.2,2.9,2.1,4.9,2.1c2.3,0,3.5-1.1,3.5-2.6c0-3.6-9.3-1.4-9.3-7c0-2.3,2-4.3,5.6-4.3
			c2.6,0,4.4,1,5.6,2.2l-1.1,1.6c-0.9-1.1-2.6-1.9-4.5-1.9c-2.1,0-3.3,1-3.3,2.4c0,3.3,9.3,1.1,9.3,7c0,2.5-2,4.5-5.9,4.5
			C347.7,40.2,345.6,39.5,344.1,37.8"/>
		<path class="st1" d="M360.4,36.7v-9.8h-2.5v-2.1h2.5v-4.1h2.3v4.1h3.1v2.1h-3.1v9.3c0,1.1,0.5,1.9,1.5,1.9c0.7,0,1.3-0.3,1.6-0.6
			l0.7,1.7c-0.6,0.6-1.4,1-2.8,1C361.5,40.2,360.4,38.9,360.4,36.7"/>
		<path class="st2" d="M169.5,55.3l0.8-1.1c0.5,0.6,1.4,1.1,2.5,1.1c1.1,0,1.5-0.5,1.5-1.1c0-1.6-4.5-0.6-4.5-3.5
			c0-1.3,1.1-2.3,2.8-2.3c1.2,0,2.2,0.4,2.9,1.1l-0.8,1c-0.6-0.6-1.4-0.9-2.3-0.9c-0.8,0-1.3,0.4-1.3,1c0,1.5,4.5,0.6,4.5,3.4
			c0,1.3-0.9,2.4-3,2.4C171.2,56.6,170.2,56,169.5,55.3"/>
		<path class="st2" d="M177,55.1v-3.2h-0.9v-1.1h0.9v-1.5h1.2v1.5h1.1v1.1h-1.1v2.9c0,0.4,0.2,0.7,0.5,0.7c0.2,0,0.4-0.1,0.5-0.2
			l0.3,0.9c-0.2,0.2-0.6,0.4-1.1,0.4C177.5,56.6,177,56,177,55.1"/>
		<path class="st2" d="M180.6,56.4v-5.6h1.2v0.8c0.4-0.5,1.1-1,1.8-1v1.2c-0.1,0-0.2,0-0.4,0c-0.5,0-1.2,0.3-1.5,0.8v3.8H180.6z"/>
		<path class="st2" d="M187.3,51.7c-1,0-1.5,0.8-1.6,1.5h3.2C188.9,52.5,188.4,51.7,187.3,51.7 M184.5,53.6c0-1.6,1.2-2.9,2.9-2.9
			c1.7,0,2.8,1.3,2.8,3V54h-4.3c0.1,0.8,0.7,1.5,1.8,1.5c0.6,0,1.2-0.2,1.6-0.6l0.6,0.8c-0.6,0.5-1.4,0.8-2.3,0.8
			C185.7,56.6,184.5,55.4,184.5,53.6"/>
		<path class="st2" d="M195.3,56.4v-3.5c0-0.9-0.5-1.2-1.1-1.2c-0.6,0-1.2,0.4-1.4,0.7v3.9h-1.2v-5.6h1.2v0.8c0.4-0.4,1.1-0.9,2-0.9
			c1.2,0,1.8,0.7,1.8,1.8v4H195.3z"/>
		<path class="st2" d="M202.2,54.6v-2.1c-0.3-0.4-0.9-0.7-1.4-0.7c-1,0-1.6,0.7-1.6,1.8s0.6,1.8,1.6,1.8
			C201.3,55.3,201.9,55,202.2,54.6 M198.2,57.9l0.6-0.9c0.5,0.5,1,0.7,1.8,0.7c0.8,0,1.7-0.4,1.7-1.6v-0.6c-0.4,0.6-1.1,0.9-1.8,0.9
			c-1.4,0-2.5-1-2.5-2.9c0-1.8,1-2.9,2.5-2.9c0.7,0,1.4,0.3,1.8,0.9v-0.8h1.2v5.3c0,2-1.5,2.6-2.9,2.6
			C199.6,58.7,198.9,58.5,198.2,57.9"/>
		<path class="st2" d="M205.4,55.1v-3.2h-0.9v-1.1h0.9v-1.5h1.2v1.5h1.1v1.1h-1.1v2.9c0,0.4,0.2,0.7,0.5,0.7c0.2,0,0.4-0.1,0.5-0.2
			l0.3,0.9c-0.2,0.2-0.6,0.4-1.1,0.4C205.9,56.6,205.4,56,205.4,55.1"/>
		<path class="st2" d="M212.9,56.4v-3.5c0-0.9-0.4-1.1-1.1-1.1c-0.6,0-1.2,0.4-1.4,0.7v3.9h-1.2v-7.8h1.2v2.9c0.4-0.4,1.1-0.9,2-0.9
			c1.2,0,1.8,0.6,1.8,1.8v4H212.9z"/>
		<path class="st2" d="M218.3,51.7c-1,0-1.5,0.8-1.6,1.5h3.2C219.9,52.5,219.4,51.7,218.3,51.7 M215.5,53.6c0-1.6,1.2-2.9,2.9-2.9
			c1.7,0,2.8,1.3,2.8,3V54h-4.3c0.1,0.8,0.7,1.5,1.8,1.5c0.6,0,1.2-0.2,1.6-0.6l0.6,0.8c-0.6,0.5-1.4,0.8-2.3,0.8
			C216.7,56.6,215.5,55.4,215.5,53.6"/>
		<path class="st2" d="M226.3,56.4v-3.5c0-0.9-0.5-1.2-1.1-1.2c-0.6,0-1.2,0.4-1.4,0.7v3.9h-1.2v-5.6h1.2v0.8c0.4-0.4,1.1-0.9,2-0.9
			c1.2,0,1.8,0.7,1.8,1.8v4H226.3z"/>
		<path class="st2" d="M229.2,50.8h1.2v5.6h-1.2V50.8z M229.1,49.4c0-0.4,0.3-0.8,0.8-0.8c0.4,0,0.8,0.3,0.8,0.8s-0.3,0.8-0.8,0.8
			C229.4,50.1,229.1,49.8,229.1,49.4"/>
		<path class="st2" d="M236,56.4v-3.5c0-0.9-0.5-1.2-1.1-1.2c-0.6,0-1.2,0.4-1.4,0.7v3.9h-1.2v-5.6h1.2v0.8c0.4-0.4,1.1-0.9,2-0.9
			c1.2,0,1.8,0.7,1.8,1.8v4H236z"/>
		<path class="st2" d="M242.9,54.6v-2.1c-0.3-0.4-0.9-0.7-1.4-0.7c-1,0-1.6,0.7-1.6,1.8s0.6,1.8,1.6,1.8
			C242,55.3,242.6,55,242.9,54.6 M238.9,57.9l0.6-0.9c0.5,0.5,1,0.7,1.8,0.7c0.8,0,1.7-0.4,1.7-1.6v-0.6c-0.4,0.6-1.1,0.9-1.8,0.9
			c-1.4,0-2.5-1-2.5-2.9c0-1.8,1-2.9,2.5-2.9c0.7,0,1.4,0.3,1.8,0.9v-0.8h1.2v5.3c0,2-1.5,2.6-2.9,2.6
			C240.3,58.7,239.6,58.5,238.9,57.9"/>
		<path class="st2" d="M253,54.6v-2.1c-0.3-0.4-0.9-0.7-1.4-0.7c-1,0-1.6,0.7-1.6,1.8s0.6,1.8,1.6,1.8C252.1,55.3,252.7,55,253,54.6
			 M249,57.9l0.6-0.9c0.5,0.5,1,0.7,1.8,0.7c0.8,0,1.7-0.4,1.7-1.6v-0.6c-0.4,0.6-1.1,0.9-1.8,0.9c-1.4,0-2.5-1-2.5-2.9
			c0-1.8,1-2.9,2.5-2.9c0.7,0,1.3,0.3,1.8,0.9v-0.8h1.2v5.3c0,2-1.5,2.6-2.9,2.6C250.4,58.7,249.7,58.5,249,57.9"/>
		<path class="st2" d="M258.5,51.7c-1,0-1.5,0.8-1.6,1.5h3.2C260,52.5,259.6,51.7,258.5,51.7 M255.6,53.6c0-1.6,1.2-2.9,2.9-2.9
			c1.7,0,2.8,1.3,2.8,3V54h-4.3c0.1,0.8,0.7,1.5,1.8,1.5c0.6,0,1.2-0.2,1.6-0.6l0.6,0.8c-0.6,0.5-1.4,0.8-2.3,0.8
			C256.9,56.6,255.6,55.4,255.6,53.6"/>
		<path class="st2" d="M266.4,56.4v-3.5c0-0.9-0.5-1.2-1.1-1.2c-0.6,0-1.2,0.4-1.4,0.7v3.9h-1.2v-5.6h1.2v0.8c0.4-0.4,1.1-0.9,2-0.9
			c1.2,0,1.8,0.7,1.8,1.8v4H266.4z"/>
		<path class="st2" d="M271.9,51.7c-1,0-1.5,0.8-1.6,1.5h3.2C273.4,52.5,273,51.7,271.9,51.7 M269,53.6c0-1.6,1.2-2.9,2.9-2.9
			c1.7,0,2.8,1.3,2.8,3V54h-4.3c0.1,0.8,0.7,1.5,1.8,1.5c0.6,0,1.2-0.2,1.6-0.6l0.6,0.8c-0.6,0.5-1.4,0.8-2.3,0.8
			C270.3,56.6,269,55.4,269,53.6"/>
		<path class="st2" d="M276,56.4v-5.6h1.2v0.8c0.4-0.5,1.1-1,1.8-1v1.2c-0.1,0-0.2,0-0.4,0c-0.5,0-1.2,0.3-1.5,0.8v3.8H276z"/>
		<path class="st2" d="M283.7,55.1v-0.9c-0.3-0.4-0.8-0.6-1.3-0.6c-0.7,0-1.2,0.4-1.2,1c0,0.6,0.5,1,1.2,1
			C282.8,55.7,283.4,55.5,283.7,55.1 M283.7,56.4v-0.6c-0.4,0.5-1.1,0.8-1.8,0.8c-0.9,0-1.9-0.6-1.9-1.9c0-1.3,1-1.8,1.9-1.8
			c0.8,0,1.4,0.2,1.8,0.7v-0.8c0-0.7-0.5-1-1.3-1c-0.6,0-1.2,0.2-1.7,0.7l-0.5-0.9c0.7-0.6,1.5-0.9,2.4-0.9c1.3,0,2.4,0.5,2.4,2v3.7
			H283.7z"/>
	</g>
	<rect x="286.6" y="48.7" class="st2" width="1.2" height="7.8"/>
	<g>
		<path class="st2" d="M296.8,53.6c0-1.1-0.6-1.9-1.6-1.9c-0.6,0-1.2,0.3-1.4,0.7v2.2c0.3,0.4,0.9,0.8,1.4,0.8
			C296.2,55.5,296.8,54.7,296.8,53.6 M293.8,55.6v2.9h-1.2v-7.8h1.2v0.8c0.4-0.6,1.1-0.9,1.8-0.9c1.5,0,2.5,1.1,2.5,2.9
			c0,1.8-1,3-2.5,3C294.8,56.6,294.2,56.2,293.8,55.6"/>
		<path class="st2" d="M299.4,56.4v-5.6h1.2v0.8c0.4-0.5,1.1-1,1.8-1v1.2c-0.1,0-0.2,0-0.4,0c-0.5,0-1.2,0.3-1.5,0.8v3.8H299.4z"/>
		<path class="st2" d="M307.1,55.1v-0.9c-0.3-0.4-0.8-0.6-1.3-0.6c-0.7,0-1.2,0.4-1.2,1c0,0.6,0.5,1,1.2,1
			C306.3,55.7,306.8,55.5,307.1,55.1 M307.1,56.4v-0.6c-0.4,0.5-1.1,0.8-1.8,0.8c-0.9,0-1.9-0.6-1.9-1.9c0-1.3,1-1.8,1.9-1.8
			c0.8,0,1.4,0.2,1.8,0.7v-0.8c0-0.7-0.5-1-1.3-1c-0.6,0-1.2,0.2-1.7,0.7l-0.5-0.9c0.7-0.6,1.5-0.9,2.4-0.9c1.3,0,2.4,0.5,2.4,2v3.7
			H307.1z"/>
		<path class="st2" d="M309.7,53.6c0-1.7,1.2-2.9,2.9-2.9c1.1,0,1.8,0.5,2.2,1l-0.8,0.7c-0.3-0.4-0.7-0.7-1.3-0.7
			c-1,0-1.7,0.8-1.7,1.9c0,1.1,0.7,1.9,1.7,1.9c0.5,0,1-0.2,1.3-0.7l0.8,0.8c-0.4,0.5-1,1-2.2,1C310.9,56.6,309.7,55.3,309.7,53.6"
			/>
		<path class="st2" d="M316.2,55.1v-3.2h-0.9v-1.1h0.9v-1.5h1.2v1.5h1.1v1.1h-1.1v2.9c0,0.4,0.2,0.7,0.5,0.7c0.2,0,0.4-0.1,0.5-0.2
			l0.3,0.9c-0.2,0.2-0.6,0.4-1.1,0.4C316.7,56.6,316.2,56,316.2,55.1"/>
		<path class="st2" d="M319.9,50.8h1.2v5.6h-1.2V50.8z M319.7,49.4c0-0.4,0.3-0.8,0.8-0.8c0.4,0,0.8,0.3,0.8,0.8s-0.3,0.8-0.8,0.8
			C320.1,50.1,319.7,49.8,319.7,49.4"/>
		<path class="st2" d="M322.3,53.6c0-1.7,1.2-2.9,2.9-2.9c1.1,0,1.8,0.5,2.2,1l-0.8,0.7c-0.3-0.4-0.7-0.7-1.3-0.7
			c-1,0-1.7,0.8-1.7,1.9c0,1.1,0.7,1.9,1.7,1.9c0.5,0,1-0.2,1.3-0.7l0.8,0.8c-0.4,0.5-1,1-2.2,1C323.5,56.6,322.3,55.3,322.3,53.6"
			/>
		<path class="st2" d="M331.1,51.7c-1,0-1.5,0.8-1.6,1.5h3.2C332.6,52.5,332.2,51.7,331.1,51.7 M328.2,53.6c0-1.6,1.2-2.9,2.9-2.9
			c1.7,0,2.8,1.3,2.8,3V54h-4.3c0.1,0.8,0.7,1.5,1.8,1.5c0.6,0,1.2-0.2,1.6-0.6l0.6,0.8c-0.6,0.5-1.4,0.8-2.3,0.8
			C329.5,56.6,328.2,55.4,328.2,53.6"/>
		<path class="st2" d="M337.4,50.8h1.2v5.6h-1.2V50.8z M337.3,49.4c0-0.4,0.3-0.8,0.8-0.8s0.8,0.3,0.8,0.8s-0.3,0.8-0.8,0.8
			S337.3,49.8,337.3,49.4"/>
		<path class="st2" d="M344.2,56.4v-3.5c0-0.9-0.5-1.2-1.1-1.2c-0.6,0-1.2,0.4-1.4,0.7v3.9h-1.2v-5.6h1.2v0.8c0.4-0.4,1.1-0.9,2-0.9
			c1.2,0,1.8,0.7,1.8,1.8v4H344.2z"/>
	</g>
	<polygon class="st2" points="354.8,56.4 353.3,50.7 351.8,56.4 350.4,56.4 348.1,48.7 349.4,48.7 351.2,54.6 352.8,48.7 
		353.9,48.7 355.5,54.6 357.2,48.7 358.5,48.7 356.3,56.4 	"/>
	<path class="st2" d="M362.1,50l-1.4,3.7h2.8L362.1,50z M364.4,56.4l-0.6-1.5h-3.6l-0.6,1.5h-1.5l3-7.8h1.7l3,7.8H364.4z"/>
	<line class="st3" x1="67" y1="8.7" x2="67" y2="66.5"/>
</g>
<rect class="st4" width="384.2" height="75.5"/>
</svg>
